<svg width="16" height="16" xmlns="http://www.w3.org/2000/svg" fill="currentColor" class="bi bi-linkedin">
 <g>
  <title>Layer 1</title>
  <path transform="rotate(-90 8 8)" d="m0,1.146c0,-0.633 0.526,-1.146 1.175,-1.146l13.65,0c0.649,0 1.175,0.513 1.175,1.146l0,13.708c0,0.633 -0.526,1.146 -1.175,1.146l-13.65,0c-0.649,0 -1.175,-0.513 -1.175,-1.146l0,-13.708zm4.943,12.248l0,-7.225l-2.401,0l0,7.225l2.401,0zm-1.2,-8.212c0.837,0 1.358,-0.554 1.358,-1.248c-0.015,-0.709 -0.52,-1.248 -1.342,-1.248c-0.822,0 -1.359,0.54 -1.359,1.248c0,0.694 0.521,1.248 1.327,1.248l0.016,0zm4.908,8.212l0,-4.035c0,-0.216 0.016,-0.432 0.08,-0.586c0.173,-0.431 0.568,-0.878 1.232,-0.878c0.869,0 1.216,0.662 1.216,1.634l0,3.865l2.401,0l0,-4.144c0,-2.22 -1.184,-3.252 -2.764,-3.252c-1.274,0 -1.845,0.7 -2.165,1.193l0,0.025l-0.016,0a5.54,5.54 0 0 1 0.016,-0.025l0,-1.022l-2.4,0c0.03,0.678 0,7.225 0,7.225l2.4,0z" id="svg_1"/>
 </g>

</svg>