<svg width="35" height="35" xmlns="http://www.w3.org/2000/svg" fill="none">
 <defs>
  <linearGradient y2="0.7845" x2="0.79638" y1="0.11697" x1="0.12958" id="a">
   <stop stop-color="#387EB8"/>
   <stop stop-color="#366994" offset="1"/>
  </linearGradient>
  <linearGradient y2="0.88773" x2="0.90742" y1="0.20315" x1="0.19127" id="b">
   <stop stop-color="#FFE052"/>
   <stop stop-color="#FFC331" offset="1"/>
  </linearGradient>
 </defs>
 <g>
  <title>Layer 1</title>
  <g id="svg_3">
   <path id="svg_1" fill="url(#a)" d="m17.79413,1.90913c-8.124,0 -7.617,3.523 -7.617,3.523l0.01,3.65l7.752,0l0,1.095l-10.833,0s-5.197,-0.59 -5.197,7.608c0,8.196 4.537,7.906 4.537,7.906l2.708,0l0,-3.804s-0.146,-4.537 4.465,-4.537l7.688,0s4.32,0.07 4.32,-4.175l0,-7.019s0.656,-4.247 -7.833,-4.247zm-4.275,2.454c0.771,0 1.395,0.624 1.395,1.395s-0.624,1.395 -1.395,1.395a1.393,1.393 0 0 1 -1.395,-1.395c0,-0.771 0.624,-1.395 1.395,-1.395z"/>
   <path id="svg_2" fill="url(#b)" d="m18.02413,33.74213c8.124,0 7.617,-3.523 7.617,-3.523l-0.01,-3.65l-7.752,0l0,-1.095l10.832,0s5.198,0.59 5.198,-7.607c0,-8.197 -4.537,-7.906 -4.537,-7.906l-2.708,0l0,3.803s0.146,4.537 -4.465,4.537l-7.688,0s-4.32,-0.07 -4.32,4.175l0,7.019s-0.656,4.247 7.833,4.247zm4.275,-2.454a1.393,1.393 0 0 1 -1.395,-1.395c0,-0.77 0.624,-1.394 1.395,-1.394s1.395,0.623 1.395,1.394c0,0.772 -0.624,1.395 -1.395,1.395z"/>
  </g>
 </g>
</svg>