<svg width="100" height="59.99999999999999" xmlns="http://www.w3.org/2000/svg" xmlns:xlink="http://www.w3.org/1999/xlink" version="1.0">
 <defs>
  <linearGradient id="c">
   <stop stop-opacity="0.498" stop-color="#b8b8b8" offset="0"/>
   <stop stop-opacity="0" stop-color="#7f7f7f" offset="1"/>
  </linearGradient>
  <linearGradient id="a">
   <stop stop-color="#ffd43b" offset="0"/>
   <stop stop-color="#ffe873" offset="1"/>
  </linearGradient>
  <linearGradient id="b">
   <stop stop-color="#5a9fd4" offset="0"/>
   <stop stop-color="#306998" offset="1"/>
  </linearGradient>
  <linearGradient x1="0.5" y1="0.82276" x2="0.23442" y2="0.44915" id="e" xlink:href="#a"/>
  <linearGradient x1="0" y1="0" x2="0.7452" y2="0.6411" id="d" xlink:href="#b"/>
  <radialGradient cx="61.519" cy="132.286" r="29.037" fx="61.519" fy="132.286" id="f" xlink:href="#c" gradientUnits="userSpaceOnUse" gradientTransform="matrix(0,-0.04432104900479317,0.2045760452747345,0,-12.775867462158203,45.56968688964844)"/>
 </defs>
 <g>
  <title>Layer 1</title>
  <g stroke="null" id="svg_6">
   <path stroke="null" id="svg_1" fill="#646464" d="m36.32619,26.25012c0,-1.88006 -0.59166,-2.84527 -1.77511,-2.89821a3.33448,3.02112 0 0 0 -1.37782,0.20515c-0.35696,0.11581 -0.59721,0.23033 -0.72361,0.34601l0,4.48765c0.75695,0.43032 1.42926,0.63043 2.01536,0.59906c1.24031,-0.07437 1.86118,-0.98677 1.86118,-2.73966zm1.45976,0.07798c0,0.95514 -0.24724,1.74799 -0.74441,2.37842c-0.55432,0.71358 -1.32239,1.08102 -2.30421,1.10116c-0.74042,0.0213 -1.50294,-0.18876 -2.28768,-0.62927l0,4.07851l-1.26952,-0.41017l0,-9.05302c0.20833,-0.23162 0.47637,-0.43044 0.80141,-0.59906c0.75567,-0.39894 1.67365,-0.60409 2.75436,-0.61416l0.01795,0.0164c0.98752,-0.01136 1.74875,0.35608 2.28355,1.10116c0.4986,0.68324 0.74855,1.5591 0.74855,2.63005zm7.75864,2.67666c0,1.28113 -0.14164,2.16823 -0.42493,2.66155c-0.28471,0.49332 -0.82649,0.88723 -1.62648,1.18043c-0.64866,0.23149 -1.35003,0.35737 -2.10286,0.3788l-0.20976,-0.72481c0.76522,-0.09451 1.30429,-0.18888 1.61679,-0.28326c0.61531,-0.18876 1.03739,-0.47809 1.26952,-0.8658c0.1861,-0.3158 0.27773,-0.9186 0.27773,-1.81086l0,-0.29953c-0.8681,0.3575 -1.77782,0.53489 -2.72928,0.53489c-0.625,0 -1.17647,-0.17739 -1.65156,-0.53476c-0.53323,-0.38887 -0.79999,-0.88219 -0.79999,-1.47996l0,-4.78705l1.26967,-0.39378l0,4.81829c0,0.51475 0.18325,0.91124 0.55005,1.18934c0.36651,0.2781 0.8416,0.41147 1.42356,0.40152c0.58197,-0.01149 1.20554,-0.21535 1.86816,-0.61416l0,-5.62147l1.26938,0l0,6.25061zm4.95583,0.73992a5.0818,4.60423 0 0 1 -0.41809,0.0164c-0.71805,0 -1.27779,-0.1548 -1.67778,-0.46556c-0.39871,-0.31089 -0.59864,-0.74004 -0.59864,-1.28746l0,-4.53038l-0.86953,0l0,-0.72352l0.86953,0l0,-1.92151l1.2681,-0.40901l0,2.33052l1.42641,0l0,0.72365l-1.42641,0l0,4.49875c0,0.43161 0.12782,0.73746 0.38332,0.91615c0.21945,0.14718 0.56814,0.23149 1.04309,0.25292l0,0.59906zm7.68654,-0.09438l-1.26967,0l0,-4.43962c0,-0.45188 -0.11656,-0.84062 -0.34855,-1.16532c-0.26804,-0.36744 -0.64025,-0.55129 -1.11805,-0.55129c-0.58197,0 -1.30985,0.27823 -2.18351,0.83442l0,5.32181l-1.26952,0l0,-10.61225l1.26967,-0.3624l0,4.83366c0.8111,-0.53489 1.69716,-0.80305 2.65974,-0.80305c0.67231,0 1.21666,0.20528 1.63347,0.61429c0.41795,0.40888 0.62643,0.9186 0.62643,1.5276l0,4.80215zm6.74747,-3.58144c0,-0.72236 -0.15148,-1.31883 -0.45286,-1.79072c-0.35824,-0.57504 -0.91527,-0.87832 -1.66809,-0.90982c-1.39179,0.07295 -2.08618,0.97657 -2.08618,2.70816c0,0.79401 0.14449,1.45724 0.43605,1.98955c0.37235,0.6782 0.93066,1.01298 1.67522,1.00162c1.3972,-0.01007 2.09587,-1.00923 2.09587,-2.99878zm1.39036,0.00762c0,1.02808 -0.29027,1.88381 -0.86953,2.56717c-0.63754,0.76509 -1.51818,1.14893 -2.64179,1.14893c-1.11391,0 -1.98202,-0.38384 -2.60844,-1.14906c-0.56814,-0.68324 -0.85143,-1.53896 -0.85143,-2.56705c0,-0.9665 0.30694,-1.77949 0.92083,-2.44142c0.64866,-0.70222 1.50151,-1.05455 2.55572,-1.05455c1.05421,0 1.91262,0.35246 2.57367,1.05455c0.61403,0.66193 0.92097,1.47492 0.92097,2.44142zm7.27799,3.57383l-1.26938,0l0,-4.69138c0,-0.51462 -0.171,-0.91615 -0.51257,-1.20548c-0.34171,-0.2883 -0.79728,-0.42799 -1.36528,-0.41663c-0.60277,0.01007 -1.17647,0.18876 -1.72096,0.53489l0,5.77859l-1.26952,0l0,-5.92087c0.73059,-0.48196 1.4029,-0.79659 2.01679,-0.94378c0.57912,-0.13711 1.09026,-0.20515 1.53058,-0.20515c0.30139,0 0.58482,0.02647 0.85143,0.07927c0.49875,0.10458 0.90416,0.29824 1.2168,0.58266c0.34855,0.31464 0.52212,0.69215 0.52212,1.13382l0,5.27404z"/>
   <path stroke="null" id="svg_2" fill="url(#d)" d="m14.11253,19.2549c-0.88897,0.00388 -1.73799,0.0761 -2.48517,0.20208c-2.201,0.37017 -2.60058,1.14524 -2.60058,2.57438l0,1.88761l5.20097,0l0,0.62914l-7.15272,0c-1.51162,0 -2.83509,0.86521 -3.24903,2.51103c-0.47756,1.8865 -0.4987,3.0637 0,5.0335c0.36971,1.46627 1.25248,2.51103 2.7641,2.51103l1.78823,0l0,-2.26277c0,-1.63473 1.48524,-3.07681 3.24903,-3.07681l5.19457,0c1.44626,0 2.60058,-1.13379 2.60058,-2.51675l0,-4.71579c0,-1.34233 -1.18905,-2.35069 -2.60039,-2.57457c-0.89343,-0.14168 -1.82043,-0.20596 -2.70959,-0.20208zm-2.81259,1.51818c0.5373,0 0.97587,0.42448 0.97587,0.94667c0,0.52016 -0.43857,0.94076 -0.97568,0.94076c-0.53924,0 -0.97607,-0.4206 -0.97607,-0.94076c0,-0.52219 0.43682,-0.94667 0.97587,-0.94667z"/>
   <path stroke="null" id="svg_3" fill="url(#e)" d="m20.07116,24.73283l0,2.19923c0,1.70511 -1.51802,3.14017 -3.24903,3.14017l-5.19476,0c-1.42298,0 -2.60058,1.15983 -2.60058,2.51675l0,4.71616c0,1.34214 1.22571,2.13162 2.60058,2.51675c1.64624,0.46087 3.22498,0.54417 5.19457,0c1.3095,-0.36112 2.60058,-1.08761 2.60058,-2.51675l0,-1.88761l-5.19476,0l0,-0.62914l7.79515,0c1.51162,0 2.07492,-1.00411 2.60058,-2.51103c0.54293,-1.55143 0.51984,-3.04338 0,-5.0335c-0.37359,-1.43284 -1.08702,-2.51103 -2.60058,-2.51103l-1.95175,0zm-2.9218,11.94298c0.53924,0 0.97607,0.42078 0.97607,0.94094c0,0.52219 -0.43682,0.94667 -0.97607,0.94667c-0.5373,0 -0.97568,-0.42448 -0.97568,-0.94667c0,-0.52016 0.43838,-0.94094 0.97568,-0.94094z"/>
   <path stroke="null" id="svg_4" fill="#646464" font-family="Bitstream Vera Sans" font-size="15.165" font-weight="400" d="m92.29178,23.04379l0.30298,0l0,-1.80948l0.7177,0l0,-0.21575l-1.73838,0l0,0.21575l0.7177,0l0,1.80948m1.28933,0l0.25895,0l0,-1.65284l0.56174,1.65247l0.28824,0l0.58541,-1.64693l0,1.64711l0.28242,0l0,-2.02504l-0.37359,0l-0.63991,1.73504l-0.54564,-1.73504l-0.41762,0l0,2.02522"/>
   <path stroke="null" id="svg_5" fill="url(#f)" opacity="0.444" d="m21.25621,42.84314a6.96956,1.28701 0 1 1 -13.93913,0a6.96956,1.28701 0 1 1 13.93913,0z"/>
  </g>
 </g>
</svg>