<svg width="154" height="100" xmlns="http://www.w3.org/2000/svg">

 <g>
  <title>Layer 1</title>
  <g stroke="null" id="svg_1" fill="#003A2B">
   <path stroke="null" id="svg_2" d="m152.64627,26.72597c0,-5.26797 -4.21372,-9.67835 -9.51097,-9.67835l-132.67196,0c-5.29725,0 -9.51097,4.28788 -9.51097,9.67835l0,48.14675c0,5.26797 4.21372,9.55584 9.51097,9.55584l132.79235,0c5.17686,0 9.51097,-4.28788 9.51097,-9.67835l0,-48.02424l-0.12039,0zm-2.40784,48.02424c0,3.92035 -3.13019,7.22814 -7.10313,7.22814l-132.67196,0c-3.97294,0 -7.10313,-3.18528 -7.10313,-7.22814l0,-48.02424c0,-4.04286 3.13019,-7.22814 7.10313,-7.22814l132.67196,0c3.85254,0 7.10313,3.18528 7.10313,7.22814l0,48.02424zm-114.37238,-46.67662l-7.22352,0l0,11.27099c-1.20392,-0.24502 -2.04666,-0.36753 -3.13019,-0.36753c-7.34391,0 -12.15959,4.77792 -12.15959,12.12857c0,7.59567 4.69529,11.51602 13.24312,11.51602c2.88941,0 5.77881,-0.24502 9.39057,-0.98009l0,-33.56796l-0.12039,0zm-7.22352,28.54502c-1.20392,0.12251 -1.80588,0.24502 -2.52823,0.24502c-3.61176,0 -5.65842,-2.08268 -5.65842,-5.88052c0,-3.92035 2.16706,-6.12554 5.77881,-6.12554c0.84274,0 1.32431,0.12251 2.52823,0.36753l0,11.39351l-0.12039,0zm10.83528,-28.54502l7.22352,0l0,7.35065l-7.22352,0l0,-7.35065zm0,25.60476c0,6.24805 -0.24078,8.57576 -1.20392,10.65844c-0.96314,1.96017 -2.40784,3.30779 -5.53803,4.77792l6.62156,3.18528c3.13019,-1.59264 4.69529,-3.06277 5.77881,-5.26797c1.20392,-2.32771 1.68549,-5.14545 1.68549,-10.90346l0,-17.029l-7.22352,0l0,14.57879l-0.12039,0zm21.0686,-14.7013c-3.25058,0 -5.41764,0.61255 -9.0294,2.20519l0,5.51299c2.40784,-1.47013 5.17686,-2.20519 7.70509,-2.20519c1.80588,0 1.92627,0.49004 1.92627,1.71515l0,1.59264c-7.22352,0.73506 -11.91881,3.06277 -11.91881,8.08571c0,4.65541 2.28745,6.73809 8.18665,6.73809c2.88941,0 7.34391,-0.36753 9.75175,-0.73506l0,-14.57879c0,-2.94026 0.48157,-4.41039 -0.12039,-5.51299c-1.08353,-1.83766 -2.88941,-2.81775 -6.50117,-2.81775zm0.60196,18.37662c-1.20392,0.24502 -1.92627,0.36753 -3.0098,0.36753c-1.92627,0 -3.0098,-0.61255 -3.0098,-2.08268c0,-1.83766 2.40784,-2.57273 6.0196,-3.06277l0,4.77792zm21.0686,-18.37662c-3.49137,0 -6.62156,0.49004 -11.43724,1.59264l0,21.80693l7.22352,0l0,-17.029c1.20392,-0.36753 2.52823,-0.49004 3.49137,-0.49004c2.52823,0 3.73215,0.98009 3.73215,3.79784l0,13.72121l7.22352,0l0,-14.08874c0,-3.55281 -0.72235,-5.26797 -2.16706,-6.86061c-1.5651,-1.59264 -4.4545,-2.45022 -8.06626,-2.45022zm34.91367,6.24805l2.52823,-5.14545c-3.37098,-0.73506 -6.13999,-0.98009 -9.14979,-0.98009c-10.35371,0 -16.13252,4.65541 -16.13252,12.74112c0,6.61558 3.97294,10.78095 10.11293,10.78095c1.80588,0 3.37098,-0.24502 4.5749,-0.98009l0,0.12251c0,4.5329 -2.16706,6.49307 -6.74195,6.49307c-2.64862,0 -5.29725,-0.61255 -7.70509,-1.96017l0,6.61558c2.40784,0.98009 4.93607,1.34762 7.70509,1.34762c5.41764,0 9.51097,-1.71515 11.67802,-5.26797c1.5651,-2.32771 2.28745,-5.26797 2.28745,-11.39351l0,-1.96017l-0.24078,-2.94026l-0.24078,-3.79784l-0.48157,-3.06277l0,-0.73506c2.40784,0.12251 0,-0.24502 1.80588,0.12251zm-7.82548,10.53593l0,0.49004c-1.20392,0.24502 -1.68549,0.49004 -2.64862,0.49004c-3.13019,0 -4.81568,-2.08268 -4.81568,-5.6355c0,-2.57273 0.84274,-4.65541 2.52823,-5.6355c1.08353,-0.73506 2.64862,-1.47013 4.09333,-1.47013l0.84274,0l0,11.76104zm21.55016,-16.78398c-7.22352,0 -11.67802,4.65541 -11.67802,12.25108c0,7.22814 4.33411,11.76104 11.43724,11.76104s11.67802,-4.65541 11.67802,-12.25108c-0.12039,-7.35065 -4.4545,-11.76104 -11.43724,-11.76104zm-0.12039,18.25411c-2.76902,0 -4.33411,-2.32771 -4.33411,-6.24805c0,-3.92035 1.5651,-6.24805 4.4545,-6.24805c2.64862,0 4.21372,2.32771 4.21372,6.24805c-0.12039,3.92035 -1.68549,6.24805 -4.33411,6.24805z"/>
  </g>
 </g>
</svg>